:FULLY-SPECIFIED
:FORCE-ALL-JOINTS-BE-3DOF
:DEGREES
544
root 8.24031 13.9276 -3.52468 179.266 47.7294 176.78
lfemur -32.9773 -5.52705 -16.8127
ltibia 87.4012 -0 0
lfoot -38.8976 -9.77374 0.0194123
ltoes -6.05221 0 0
rfemur -48.3339 -6.83548 -3.61153
rtibia 62.5936 -0 0
rfoot -9.45409 1.04284 -0.00611169
rtoes -39.6662 0 0
lowerback 12.9965 1.06994 1.09374
upperback 6.82848 2.48339 6.96736
thorax -0.372107 1.50328 6.38051
lowerneck -2.35997 -16.0535 -6.1855
upperneck 9.61721 -21.7966 8.47716
head 4.89277 -10.5137 2.17432
lclavicle 0 0 0
lhumerus -45.1559 -12.9164 104.49
lradius 56.6395 -0 0
lwrist 29.2134 0 0
lhand -24.7491 -3.16164 -5.46704e-05
lfingers 0 0 0
lthumb 1.75387 26.8108 -5.52138e-05
rclavicle 0 0 0
rhumerus 6.65274 16.9065 -89.547
rradius 136.431 -0 0
rwrist -46.831 0 0
rhand -30.5641 -24.129 0.0395229
rfingers 0 0 0
rthumb -3.8621 -54.0638 0.0375946
545
root 8.28039 13.9129 -3.4985 179.314 47.4881 176.845
lfemur -32.8927 -5.4443 -16.3409
ltibia 87.1521 -0 0
lfoot -39.0391 -10.8308 0.0207258
ltoes -5.25728 0 0
rfemur -48.3406 -6.72521 -3.40504
rtibia 62.8205 -0 0
rfoot -9.35125 0.584936 -0.00652507
rtoes -39.4879 0 0
lowerback 12.8568 0.858897 1.08861
upperback 6.76004 2.17814 6.80715
thorax -0.332588 1.34489 6.25391
lowerneck -2.22875 -15.909 -6.07642
upperneck 9.25957 -21.6014 8.50767
head 4.73836 -10.4329 2.21439
lclavicle 0 0 0
lhumerus -45.382 -12.358 104.002
lradius 56.0459 -0 0
lwrist 29.2529 0 0
lhand -24.7002 -3.17026 -5.83678e-05
lfingers 0 0 0
lthumb 1.80109 26.8018 -5.8948e-05
rclavicle 0 0 0
rhumerus 7.28823 17.4781 -88.9297
rradius 136.095 -0 0
rwrist -46.2242 0 0
rhand -30.0159 -23.5735 0.0421965
rfingers 0 0 0
rthumb -3.33267 -53.5166 0.0401378
546
root 8.31567 13.9025 -3.47541 179.361 47.2482 176.908
lfemur -32.8079 -5.36273 -15.8719
ltibia 86.9045 -0 0
lfoot -39.1798 -11.8816 0.0194434
ltoes -4.46711 0 0
rfemur -48.3468 -6.61557 -3.19984
rtibia 63.046 -0 0
rfoot -9.24904 0.129769 -0.0061215
rtoes -39.3106 0 0
lowerback 12.718 0.649105 1.08401
upperback 6.69287 1.87453 6.64828
thorax -0.292961 1.18752 6.12796
lowerneck -2.09813 -15.7657 -5.96772
upperneck 8.90467 -21.4071 8.53666
head 4.58498 -10.3525 2.25398
lclavicle 0 0 0
lhumerus -45.611 -11.8048 103.516
lradius 55.4559 -0 0
lwrist 29.2921 0 0
lhand -24.6517 -3.17882 -5.47581e-05
lfingers 0 0 0
lthumb 1.84802 26.7929 -5.53025e-05
rclavicle 0 0 0
rhumerus 7.9283 18.0397 -88.3076
rradius 135.761 -0 0
rwrist -45.621 0 0
rhand -29.4709 -23.0213 0.0395863
rfingers 0 0 0
rthumb -2.8064 -52.9728 0.037655
547
root 8.34566 13.8958 -3.45576 179.405 47.0228 176.967
lfemur -32.7277 -5.28672 -15.4311
ltibia 86.6718 -0 0
lfoot -39.312 -12.869 0.0158871
ltoes -3.72455 0 0
rfemur -48.3523 -6.51252 -3.00705
rtibia 63.258 -0 0
rfoot -9.15298 -0.297976 -0.00500214
rtoes -39.144 0 0
lowerback 12.5876 0.451941 1.08016
upperback 6.63052 1.58904 6.49934
thorax -0.255407 1.03972 6.0095
lowerneck -1.9752 -15.6312 -5.86534
upperneck 8.57167 -21.2243 8.5627
head 4.44092 -10.2768 2.29099
lclavicle 0 0 0
lhumerus -45.8303 -11.2867 103.058
lradius 54.9014 -0 0
lwrist 29.329 0 0
lhand -24.606 -3.18687 -4.47459e-05
lfingers 0 0 0
lthumb 1.89213 26.7845 -4.51907e-05
rclavicle 0 0 0
rhumerus 8.53753 18.5614 -87.7151
rradius 135.447 -0 0
rwrist -45.0542 0 0
rhand -28.9588 -22.5024 0.0323468
rfingers 0 0 0
rthumb -2.31187 -52.4617 0.0307687
548
root 8.36984 13.8918 -3.43987 179.442 46.8247 177.018
lfemur -32.6567 -5.22046 -15.0439
ltibia 86.4675 -0 0
lfoot -39.428 -13.7362 0.0108857
ltoes -3.07242 0 0
rfemur -48.3568 -6.42201 -2.83778
rtibia 63.4441 -0 0
rfoot -9.06864 -0.673623 -0.00342774
rtoes -38.9977 0 0
lowerback 12.473 0.278784 1.07714
upperback 6.57639 1.33819 6.36881
thorax -0.222177 0.909978 5.9054
lowerneck -1.86711 -15.5133 -5.77523
upperneck 8.27964 -21.0637 8.58459
head 4.31448 -10.2103 2.32332
lclavicle 0 0 0
lhumerus -46.0259 -10.8331 102.654
lradius 54.4145 -0 0
lwrist 29.3614 0 0
lhand -24.5659 -3.19394 -3.0663e-05
lfingers 0 0 0
lthumb 1.93086 26.7771 -3.09678e-05
rclavicle 0 0 0
rhumerus 9.07878 19.0145 -87.1885
rradius 135.171 -0 0
rwrist -44.5564 0 0
rhand -28.5092 -22.0468 0.022165
rfingers 0 0 0
rthumb -1.87765 -52.0129 0.0210837
549
root 8.38773 13.8899 -3.42811 179.472 46.6672 177.059
lfemur -32.6 -5.16809 -14.7358
ltibia 86.3049 -0 0
lfoot -39.5202 -14.4261 0.00565274
ltoes -2.55357 0 0
rfemur -48.3603 -6.34998 -2.70314
rtibia 63.5922 -0 0
rfoot -9.00154 -0.972493 -0.00178012
rtoes -38.8813 0 0
lowerback 12.3819 0.141012 1.07499
upperback 6.53373 1.13853 6.26513
thorax -0.195571 0.806799 5.82252
lowerneck -1.78102 -15.4196 -5.70341
upperneck 8.04756 -20.9359 8.60137
head 4.21392 -10.1573 2.34893
lclavicle 0 0 0
lhumerus -46.1837 -10.4732 102.333
lradius 54.027 -0 0
lwrist 29.3872 0 0
lhand -24.534 -3.19956 -1.59245e-05
lfingers 0 0 0
lthumb 1.96168 26.7712 -1.60828e-05
rclavicle 0 0 0
rhumerus 9.51361 19.3717 -86.7653
rradius 134.951 -0 0
rwrist -44.1604 0 0
rhand -28.1515 -21.6844 0.0115105
rfingers 0 0 0
rthumb -1.53223 -51.6559 0.010949
550
root 8.39882 13.8893 -3.4208 179.492 46.5631 177.085
lfemur -32.5623 -5.13367 -14.5323
ltibia 86.1975 -0 0
lfoot -39.5811 -14.8818 0.00158714
ltoes -2.21085 0 0
rfemur -48.3624 -6.3024 -2.61421
rtibia 63.69 -0 0
rfoot -8.95722 -1.16991 -0.000499847
rtoes -38.8045 0 0
lowerback 12.3217 0.0500053 1.07369
upperback 6.50575 1.00659 6.19673
thorax -0.177915 0.738665 5.76775
lowerneck -1.7241 -15.3577 -5.65591
upperneck 7.89439 -20.8514 8.61214
head 4.14752 -10.1223 2.36579
lclavicle 0 0 0
lhumerus -46.289 -10.236 102.12
lradius 53.7711 -0 0
lwrist 29.4043 0 0
lhand -24.5129 -3.20328 -4.47158e-06
lfingers 0 0 0
lthumb 1.98204 26.7673 -4.51603e-06
rclavicle 0 0 0
rhumerus 9.80289 19.6059 -86.4836
rradius 134.806 -0 0
rwrist -43.8988 0 0
rhand -27.9153 -21.445 0.00323196
rfingers 0 0 0
rthumb -1.3041 -51.4201 0.00307431
551
root 8.39158 14.1025 -3.38425 179.499 46.5255 177.095
lfemur -32.5487 -5.12127 -14.4588
ltibia 86.1587 0 0
lfoot -39.6031 -15.0464 0
ltoes -2.08709 0 0
rfemur -48.3632 -6.28522 -2.5821
rtibia 63.7253 0 0
rfoot -8.94122 -1.2412 0
rtoes -38.7767 0 0
lowerback 12.3 0.0171414 1.07324
upperback 6.49569 0.958941 6.17205
thorax -0.171523 0.714065 5.74797
lowerneck -1.70354 -15.3354 -5.63874
upperneck 7.83911 -20.8209 8.61597
head 4.12355 -10.1096 2.37187
lclavicle 6.75868e-14 -6.52014e-14 0
lhumerus -46.3272 -10.1504 102.043
lradius 53.6787 0 0
lwrist 29.4104 0 0
lhand -24.5053 -3.20462 0
lfingers 7.12502 0 0
lthumb 1.98939 26.7659 0
rclavicle 6.75868e-14 -6.52014e-14 0
rhumerus 9.90776 19.6902 -86.3815
rradius 134.754 0 0
rwrist -43.8043 0 0
rhand -27.83 -21.3586 0
rfingers 7.12502 0 0
rthumb -1.22173 -51.335 0
552
root 8.38388 14.1706 -3.37731 179.694 47.1343 177.151
lfemur -32.1183 -4.66839 -14.5748
ltibia 85.0579 -0 0
lfoot -39.5203 -14.6084 0.00488942
ltoes -2.38889 0 0
rfemur -48.1759 -5.97536 -2.39067
rtibia 62.4643 -0 0
rfoot -8.12933 -0.839413 0.0441503
rtoes -38.6453 0 0
lowerback 12.1402 -0.0303691 0.95851
upperback 6.36049 0.858173 6.08349
thorax -0.21529 0.65401 5.73049
lowerneck -1.75845 -15.2951 -5.57892
upperneck 7.89183 -20.763 8.48526
head 4.12482 -10.0823 2.32726
lclavicle 0 0 0
lhumerus -46.2915 -10.0503 101.959
lradius 53.6448 -0 0
lwrist 29.2528 0 0
lhand -24.5682 -3.3521 0.00124912
lfingers 0 0 0
lthumb 1.92865 26.6188 0.00120306
rclavicle 0 0 0
rhumerus 10.5612 19.5849 -85.9067
rradius 134.736 -0 0
rwrist -43.8313 0 0
rhand -27.8146 -21.3815 -4.7476e-05
rfingers 0 0 0
rthumb -1.20683 -51.3579 -4.60351e-05
553
root 8.36805 14.2554 -3.37457 179.979 48.0059 177.239
lfemur -31.504 -4.01835 -14.7348
ltibia 83.4814 -0 0
lfoot -39.4017 -13.9812 0.010789
ltoes -2.82109 0 0
rfemur -47.906 -5.5327 -2.11494
rtibia 60.6584 -0 0
rfoot -6.96612 -0.263015 0.0974512
rtoes -38.4571 0 0
lowerback 11.9116 -0.0989654 0.794436
upperback 6.16715 0.7135 5.95709
thorax -0.277937 0.567983 5.70553
lowerneck -1.837 -15.2374 -5.49333
upperneck 7.96705 -20.6799 8.29826
head 4.1266 -10.0433 2.26338
lclavicle 0 0 0
lhumerus -46.2406 -9.90678 101.839
lradius 53.5963 -0 0
lwrist 29.027 0 0
lhand -24.6582 -3.56332 0.0027561
lfingers 0 0 0
lthumb 1.84167 26.4082 0.00265447
rclavicle 0 0 0
rhumerus 11.4946 19.4251 -85.2295
rradius 134.71 -0 0
rwrist -43.8699 0 0
rhand -27.7925 -21.4142 -0.000104751
rfingers 0 0 0
rthumb -1.18549 -51.3908 -0.000101572
554
root 8.34595 14.3519 -3.37527 -179.663 49.0724 177.357
lfemur -30.7551 -3.22035 -14.921
ltibia 81.5515 -0 0
lfoot -39.2564 -13.2133 0.0162425
ltoes -3.35016 0 0
rfemur -47.5731 -4.99259 -1.77482
rtibia 58.4478 -0 0
rfoot -5.54156 0.443865 0.146749
rtoes -38.2268 0 0
lowerback 11.632 -0.183827 0.593961
upperback 5.93092 0.535822 5.80302
thorax -0.354572 0.462637 5.67511
lowerneck -1.933 -15.1666 -5.38871
upperneck 8.05868 -20.5779 8.06964
head 4.12872 -9.99543 2.18519
lclavicle 0 0 0
lhumerus -46.1788 -9.73099 101.692
lradius 53.5369 -0 0
lwrist 28.7507 0 0
lhand -24.7685 -3.82187 0.00414889
lfingers 0 0 0
lthumb 1.73518 26.1504 0.00399591
rclavicle 0 0 0
rhumerus 12.6331 19.2155 -84.4054
rradius 134.678 -0 0
rwrist -43.9172 0 0
rhand -27.7654 -21.4542 -0.000157685
rfingers 0 0 0
rthumb -1.15937 -51.431 -0.000152899
555
root 8.31946 14.4554 -3.37868 -179.249 50.266 177.505
lfemur -29.9202 -2.32401 -15.1169
ltibia 79.3907 -0 0
lfoot -39.0936 -12.3536 0.0200374
ltoes -3.94258 0 0
rfemur -47.1967 -4.39018 -1.39057
rtibia 55.9724 -0 0
rfoot -3.94586 1.23655 0.18107
rtoes -37.9689 0 0
lowerback 11.3193 -0.280007 0.369978
upperback 5.66698 0.336121 5.63138
thorax -0.440315 0.344631 5.64121
lowerneck -2.0403 -15.087 -5.27175
upperneck 8.16069 -20.4632 7.81404
head 4.13101 -9.94188 2.09766
lclavicle 0 0 0
lhumerus -46.1101 -9.53396 101.528
lradius 53.4704 -0 0
lwrist 28.4412 0 0
lhand -24.8919 -4.11139 0.00511798
lfingers 0 0 0
lthumb 1.61594 25.8617 0.00492926
rclavicle 0 0 0
rhumerus 13.9022 18.9626 -83.4893
rradius 134.643 -0 0
rwrist -43.9701 0 0
rhand -27.7352 -21.4991 -0.000194515
rfingers 0 0 0
rthumb -1.13013 -51.4761 -0.000188612
556
root 8.29044 14.5609 -3.38405 -178.796 51.5189 177.679
lfemur -29.0471 -1.37963 -15.3085
ltibia 77.121 -0 0
lfoot -38.9226 -11.4505 0.021393
ltoes -4.5648 0 0
rfemur -46.7974 -3.7602 -0.983035
rtibia 53.3726 -0 0
rfoot -2.26954 2.0698 0.193334
rtoes -37.698 0 0
lowerback 10.9912 -0.38234 0.135293
upperback 5.39041 0.125525 5.4521
thorax -0.530296 0.220633 5.6058
lowerneck -2.15277 -15.0033 -5.14912
upperneck 8.26717 -20.3424 7.54602
head 4.13333 -9.88563 2.00575
lclavicle 0 0 0
lhumerus -46.0387 -9.32682 101.356
lradius 53.4005 -0 0
lwrist 28.1162 0 0
lhand -25.0216 -4.41547 0.00546413
lfingers 0 0 0
lthumb 1.49069 25.5585 0.00526265
rclavicle 0 0 0
rhumerus 15.2282 18.6764 -82.5353
rradius 134.605 -0 0
rwrist -44.0257 0 0
rhand -27.7033 -21.5462 -0.000207671
rfingers 0 0 0
rthumb -1.09941 -51.5234 -0.000201368
557
root 8.26076 14.6636 -3.39064 -178.328 52.7633 177.873
lfemur -28.1826 -0.438116 -15.4846
ltibia 74.865 -0 0
lfoot -38.7526 -10.5529 0.0200696
ltoes -5.1833 0 0
rfemur -46.3962 -3.13684 -0.573858
rtibia 50.7883 -0 0
rfoot -0.603249 2.89807 0.181361
rtoes -37.4287 0 0
lowerback 10.6655 -0.485389 -0.0974055
upperback 5.11615 -0.0846644 5.27491
thorax -0.619661 0.0973219 5.57079
lowerneck -2.26434 -14.9198 -5.02744
upperneck 8.37232 -20.2217 7.28004
head 4.13555 -9.82971 1.9144
lclavicle 0 0 0
lhumerus -45.9683 -9.12071 101.186
lradius 53.3311 -0 0
lwrist 27.7932 0 0
lhand -25.1505 -4.71773 0.0051262
lfingers 0 0 0
lthumb 1.3662 25.2571 0.00493717
rclavicle 0 0 0
rhumerus 16.5389 18.3713 -81.5959
rradius 134.568 -0 0
rwrist -44.081 0 0
rhand -27.6717 -21.593 -0.000194828
rfingers 0 0 0
rthumb -1.06887 -51.5704 -0.000188914
